solid midas_NFX_Mesh
    facet normal       -0.530305     -0.846991     0.0372021
        outer loop
            vertex      -29.0064      -303.008       1076.05
            vertex      -31.6106       -301.78       1066.89
            vertex      -30.4528      -303.004       1055.52
        endloop
    endfacet
    facet normal        0.120071     -0.799374     -0.588715
        outer loop
            vertex    0.00850682      -301.509       1079.75
            vertex      -3.08545       -303.01       1081.16
            vertex      -6.39545      -301.561       1078.51
        endloop
    endfacet
    facet normal        0.458959     -0.399048       -0.7938
        outer loop
            vertex      -6.39545      -301.561       1078.51
            vertex      -3.08545       -303.01       1081.16
            vertex      -14.5148       -302.99       1074.54
        endloop
    endfacet
    facet normal        0.396646     -0.739191     -0.544305
        outer loop
            vertex      -6.39545      -301.561       1078.51
            vertex      -14.5148       -302.99       1074.54
            vertex      -12.8987      -301.358        1073.5
        endloop
    endfacet
    facet normal        0.626702     -0.751566     -0.205895
        outer loop
            vertex      -12.8987      -301.358        1073.5
            vertex      -14.5148       -302.99       1074.54
            vertex      -15.7633      -301.612       1065.71
        endloop
    endfacet
    facet normal        0.874914     -0.444157     -0.193003
        outer loop
            vertex      -15.7633      -301.612       1065.71
            vertex      -14.5148       -302.99       1074.54
            vertex      -17.3829      -303.009       1061.58
        endloop
    endfacet
    facet normal       0.0108807     -0.999731     0.0204838
        outer loop
            vertex        20.032      -302.908       1082.87
            vertex       17.6862      -303.009       1079.18
            vertex       30.3994      -303.007       1072.57
        endloop
    endfacet
    facet normal        0.659717     -0.751511    -0.0020591
        outer loop
            vertex       30.3257      -303.025       1055.71
            vertex       31.5085      -302.009          1064
            vertex       30.3994      -303.007       1072.57
        endloop
    endfacet
    facet normal      -0.0799477     -0.683037      0.725995
        outer loop
            vertex      -1.73078       -301.43       1048.22
            vertex      -1.89051      -303.009       1046.72
            vertex       4.08491      -301.509       1048.79
        endloop
    endfacet
    facet normal       -0.203877     -0.412547      0.887828
        outer loop
            vertex       4.08491      -301.509       1048.79
            vertex      -1.89051      -303.009       1046.72
            vertex       10.9029          -303       1049.66
        endloop
    endfacet
    facet normal       -0.245622     -0.835985      0.490712
        outer loop
            vertex       4.08491      -301.509       1048.79
            vertex       10.9029          -303       1049.66
            vertex       9.95184      -301.564       1051.63
        endloop
    endfacet
    facet normal       -0.481569     -0.802433       0.35241
        outer loop
            vertex       9.95184      -301.564       1051.63
            vertex       10.9029          -303       1049.66
            vertex       14.9505      -301.636        1058.3
        endloop
    endfacet
    facet normal       -0.861312     -0.248941      0.442911
        outer loop
            vertex       14.9505      -301.636        1058.3
            vertex       10.9029          -303       1049.66
            vertex       17.4868      -303.001       1062.47
        endloop
    endfacet
    facet normal       -0.547124     -0.834937     0.0594648
        outer loop
            vertex       14.9505      -301.636        1058.3
            vertex       17.4868      -303.001       1062.47
            vertex       15.6896      -301.542       1066.42
        endloop
    endfacet
    facet normal       -0.815588     -0.554214     -0.166323
        outer loop
            vertex       15.6896      -301.542       1066.42
            vertex       17.4868      -303.001       1062.47
            vertex       15.6132       -303.01       1071.68
        endloop
    endfacet
    facet normal       -0.549005     -0.803029     -0.231814
        outer loop
            vertex       15.6896      -301.542       1066.42
            vertex       15.6132       -303.01       1071.68
            vertex       12.5011      -301.559       1074.03
        endloop
    endfacet
    facet normal       -0.662406     -0.434129     -0.610533
        outer loop
            vertex       12.5011      -301.559       1074.03
            vertex       15.6132       -303.01       1071.68
            vertex       8.10111      -303.008       1079.83
        endloop
    endfacet
    facet normal       -0.309601     -0.840556     -0.444537
        outer loop
            vertex       12.5011      -301.559       1074.03
            vertex       8.10111      -303.008       1079.83
            vertex       5.75157      -301.591       1078.79
        endloop
    endfacet
    facet normal       -0.125342     -0.714495     -0.688321
        outer loop
            vertex       5.75157      -301.591       1078.79
            vertex       8.10111      -303.008       1079.83
            vertex    0.00850682      -301.509       1079.75
        endloop
    endfacet
    facet normal      -0.0967306     -0.567096     -0.817952
        outer loop
            vertex    0.00850682      -301.509       1079.75
            vertex       8.10111      -303.008       1079.83
            vertex      -3.08545       -303.01       1081.16
        endloop
    endfacet
    facet normal       0.0266553     -0.999426      0.020885
        outer loop
            vertex       6.61515      -303.021        1094.6
            vertex       16.3773      -302.985       1083.85
            vertex        20.032      -302.908       1082.87
        endloop
    endfacet
    facet normal   -3.24889e-005            -1  -0.000496246
        outer loop
            vertex       30.3994      -303.007       1072.57
            vertex       17.6862      -303.009       1079.18
            vertex       17.4868      -303.001       1062.47
        endloop
    endfacet
    facet normal      0.00039887            -1 -8.96083e-005
        outer loop
            vertex      -15.1269      -303.009       1045.28
            vertex      -11.9842      -303.008       1050.76
            vertex      -17.1045       -303.01       1049.08
        endloop
    endfacet
    facet normal      0.00049278     -0.999999   0.000917168
        outer loop
            vertex       9.01088      -303.016       1033.71
            vertex       10.9029          -303       1049.66
            vertex      -1.89051      -303.009       1046.72
        endloop
    endfacet
    facet normal   -9.67055e-005            -1   0.000423262
        outer loop
            vertex       9.01088      -303.016       1033.71
            vertex      -1.89051      -303.009       1046.72
            vertex      -15.1269      -303.009       1045.28
        endloop
    endfacet
    facet normal   -7.02415e-005            -1   0.000179667
        outer loop
            vertex      -15.1269      -303.009       1045.28
            vertex      -1.89051      -303.009       1046.72
            vertex      -11.9842      -303.008       1050.76
        endloop
    endfacet
    facet normal       0.0114419     -0.999934  -0.000381476
        outer loop
            vertex       9.01088      -303.016       1033.71
            vertex       22.8036      -302.861       1041.92
            vertex       10.9029          -303       1049.66
        endloop
    endfacet
    facet normal      0.00872697     -0.999952   -0.00455456
        outer loop
            vertex       10.9029          -303       1049.66
            vertex       22.8036      -302.861       1041.92
            vertex       17.4868      -303.001       1062.47
        endloop
    endfacet
    facet normal     0.000649851      -0.99999    0.00433825
        outer loop
            vertex      -3.08545       -303.01       1081.16
            vertex       8.10111      -303.008       1079.83
            vertex       16.3773      -302.985       1083.85
        endloop
    endfacet
    facet normal    -0.000568165     -0.999976    0.00684887
        outer loop
            vertex       16.3773      -302.985       1083.85
            vertex       8.10111      -303.008       1079.83
            vertex         15.29      -303.008       1080.42
        endloop
    endfacet
    facet normal   -2.08547e-005            -1   0.000201726
        outer loop
            vertex         15.29      -303.008       1080.42
            vertex       8.10111      -303.008       1079.83
            vertex       15.6132       -303.01       1071.68
        endloop
    endfacet
    facet normal    -0.000425214            -1   0.000186776
        outer loop
            vertex         15.29      -303.008       1080.42
            vertex       15.6132       -303.01       1071.68
            vertex       17.6862      -303.009       1079.18
        endloop
    endfacet
    facet normal      0.00213859     -0.999998  -0.000522143
        outer loop
            vertex       17.6862      -303.009       1079.18
            vertex       15.6132       -303.01       1071.68
            vertex       17.4868      -303.001       1062.47
        endloop
    endfacet
    facet normal    -0.000137866     -0.999996   -0.00271311
        outer loop
            vertex      -15.1692      -303.009       1081.68
            vertex      -14.5148       -302.99       1074.54
            vertex      -3.08545       -303.01       1081.16
        endloop
    endfacet
    facet normal      0.00208532     -0.999995   -0.00250941
        outer loop
            vertex      -14.5148       -302.99       1074.54
            vertex      -15.1692      -303.009       1081.68
            vertex      -18.4734       -303.01       1079.07
        endloop
    endfacet
    facet normal      0.00531634     -0.999986   0.000314104
        outer loop
            vertex      -14.5148       -302.99       1074.54
            vertex      -18.4734       -303.01       1079.07
            vertex      -17.3829      -303.009       1061.58
        endloop
    endfacet
    facet normal     -0.00128496     -0.999999    0.00110484
        outer loop
            vertex       30.3257      -303.025       1055.71
            vertex       30.3994      -303.007       1072.57
            vertex       17.4868      -303.001       1062.47
        endloop
    endfacet
    facet normal     -0.00630627     -0.999944   -0.00844478
        outer loop
            vertex       30.3257      -303.025       1055.71
            vertex       17.4868      -303.001       1062.47
            vertex       22.8036      -302.861       1041.92
        endloop
    endfacet
    facet normal      0.00189248     -0.999996   -0.00223052
        outer loop
            vertex      -12.6328      -302.982       1035.28
            vertex      -15.1269      -303.009       1045.28
            vertex      -18.6479      -303.012       1043.61
        endloop
    endfacet
    facet normal     -0.00296827     -0.999979   -0.00573954
        outer loop
            vertex      -12.6328      -302.982       1035.28
            vertex      -18.6479      -303.012       1043.61
            vertex        -25.68      -303.004       1045.97
        endloop
    endfacet
    facet normal     -0.00097356            -1   0.000189155
        outer loop
            vertex        -25.68      -303.004       1045.97
            vertex      -18.6479      -303.012       1043.61
            vertex      -20.1798      -303.009       1046.86
        endloop
    endfacet
    facet normal     -0.00118371     -0.999998    0.00149956
        outer loop
            vertex        -25.68      -303.004       1045.97
            vertex      -20.1798      -303.009       1046.86
            vertex      -17.1045       -303.01       1049.08
        endloop
    endfacet
    facet normal     -0.00035198            -1  -0.000147255
        outer loop
            vertex      -30.4528      -303.004       1055.52
            vertex        -25.68      -303.004       1045.97
            vertex      -17.3829      -303.009       1061.58
        endloop
    endfacet
    facet normal    -0.000643335            -1  7.64733e-006
        outer loop
            vertex      -17.3829      -303.009       1061.58
            vertex        -25.68      -303.004       1045.97
            vertex      -17.1045       -303.01       1049.08
        endloop
    endfacet
    facet normal     0.000359702            -1  2.99823e-005
        outer loop
            vertex      -17.3829      -303.009       1061.58
            vertex      -17.1045       -303.01       1049.08
            vertex      -11.9842      -303.008       1050.76
        endloop
    endfacet
    facet normal      -0.0267756     -0.999026     0.0350627
        outer loop
            vertex      -20.1906      -303.009       1082.74
            vertex      -24.0135      -302.846       1084.47
            vertex      -29.0064      -303.008       1076.05
        endloop
    endfacet
    facet normal    -0.000224111            -1  9.45581e-005
        outer loop
            vertex      -20.1906      -303.009       1082.74
            vertex      -29.0064      -303.008       1076.05
            vertex      -18.4734       -303.01       1079.07
        endloop
    endfacet
    facet normal    -0.000188647            -1 -2.92167e-005
        outer loop
            vertex      -18.4734       -303.01       1079.07
            vertex      -29.0064      -303.008       1076.05
            vertex      -17.3829      -303.009       1061.58
        endloop
    endfacet
    facet normal    -0.000347528            -1  -0.000156852
        outer loop
            vertex      -17.3829      -303.009       1061.58
            vertex      -29.0064      -303.008       1076.05
            vertex      -30.4528      -303.004       1055.52
        endloop
    endfacet
    facet normal     -0.00181175     -0.999993   -0.00315382
        outer loop
            vertex       9.01088      -303.016       1033.71
            vertex      -15.1269      -303.009       1045.28
            vertex      -12.6328      -302.982       1035.28
        endloop
    endfacet
    facet normal      -0.0223815     -0.998746     0.0447855
        outer loop
            vertex      -24.0135      -302.846       1084.47
            vertex      -20.1906      -303.009       1082.74
            vertex       -16.849      -303.011       1084.37
        endloop
    endfacet
    facet normal      -0.0228829     -0.999691    0.00972747
        outer loop
            vertex      -24.0135      -302.846       1084.47
            vertex       -16.849      -303.011       1084.37
            vertex      -14.6504      -302.987       1092.04
        endloop
    endfacet
    facet normal      0.00414241     -0.999989    0.00198633
        outer loop
            vertex      -14.6504      -302.987       1092.04
            vertex       -16.849      -303.011       1084.37
            vertex      -15.1692      -303.009       1081.68
        endloop
    endfacet
    facet normal     0.000914879     -0.999997   -0.00247461
        outer loop
            vertex       6.61515      -303.021        1094.6
            vertex        3.0588      -303.009       1088.42
            vertex       16.3773      -302.985       1083.85
        endloop
    endfacet
    facet normal      0.00106336     -0.999997   -0.00204207
        outer loop
            vertex       16.3773      -302.985       1083.85
            vertex        3.0588      -303.009       1088.42
            vertex      0.275257      -303.006       1085.49
        endloop
    endfacet
    facet normal     -0.00538426     -0.999948     0.0087142
        outer loop
            vertex      -5.69687      -302.952        1094.9
            vertex    -0.0599332      -303.008          1092
            vertex       6.61515      -303.021        1094.6
        endloop
    endfacet
    facet normal     -0.00157117     -0.999998   -0.00104539
        outer loop
            vertex       6.61515      -303.021        1094.6
            vertex    -0.0599332      -303.008          1092
            vertex        3.0588      -303.009       1088.42
        endloop
    endfacet
    facet normal     0.000406191            -1  -0.000701408
        outer loop
            vertex      0.275257      -303.006       1085.49
            vertex      -3.07974      -303.009       1088.07
            vertex      -15.1692      -303.009       1081.68
        endloop
    endfacet
    facet normal     -0.00115511     -0.999997    0.00225155
        outer loop
            vertex      -15.1692      -303.009       1081.68
            vertex      -3.07974      -303.009       1088.07
            vertex      -14.6504      -302.987       1092.04
        endloop
    endfacet
    facet normal      0.00107759     -0.999961    0.00875541
        outer loop
            vertex      -14.6504      -302.987       1092.04
            vertex      -3.07974      -303.009       1088.07
            vertex      -5.69687      -302.952        1094.9
        endloop
    endfacet
    facet normal     -0.00694647      -0.99996    0.00567889
        outer loop
            vertex      -5.69687      -302.952        1094.9
            vertex      -3.07974      -303.009       1088.07
            vertex    -0.0599332      -303.008          1092
        endloop
    endfacet
    facet normal      -0.0126124     -0.999915   -0.00315434
        outer loop
            vertex        20.032      -302.908       1082.87
            vertex       30.3994      -303.007       1072.57
            vertex       18.2976      -302.909       1089.95
        endloop
    endfacet
    facet normal       0.0106093     -0.999941    0.00253435
        outer loop
            vertex        20.032      -302.908       1082.87
            vertex       18.2976      -302.909       1089.95
            vertex       6.61515      -303.021        1094.6
        endloop
    endfacet
    facet normal     0.000967842     -0.999995   -0.00297819
        outer loop
            vertex       16.3773      -302.985       1083.85
            vertex      0.275257      -303.006       1085.49
            vertex      -15.1692      -303.009       1081.68
        endloop
    endfacet
    facet normal     0.000282998     -0.999976    0.00699135
        outer loop
            vertex       16.3773      -302.985       1083.85
            vertex      -15.1692      -303.009       1081.68
            vertex      -3.08545       -303.01       1081.16
        endloop
    endfacet
    facet normal         0.54658     -0.834623     0.0682213
        outer loop
            vertex      -15.7633      -301.612       1065.71
            vertex      -17.3829      -303.009       1061.58
            vertex      -14.6728      -301.556       1057.65
        endloop
    endfacet
    facet normal        0.812537     -0.418999      0.405246
        outer loop
            vertex      -14.6728      -301.556       1057.65
            vertex      -17.3829      -303.009       1061.58
            vertex      -11.9842      -303.008       1050.76
        endloop
    endfacet
    facet normal        0.404144     -0.850427       0.33681
        outer loop
            vertex      -14.6728      -301.556       1057.65
            vertex      -11.9842      -303.008       1050.76
            vertex      -9.36908      -301.591        1051.2
        endloop
    endfacet
    facet normal        0.270658     -0.703329      0.657322
        outer loop
            vertex      -9.36908      -301.591        1051.2
            vertex      -11.9842      -303.008       1050.76
            vertex      -1.73078       -301.43       1048.22
        endloop
    endfacet
    facet normal        0.273012     -0.677651      0.682828
        outer loop
            vertex      -1.73078       -301.43       1048.22
            vertex      -11.9842      -303.008       1050.76
            vertex      -1.89051      -303.009       1046.72
        endloop
    endfacet
    facet normal       -0.392358     -0.784527      -0.48018
        outer loop
            vertex        -25.68      -303.004       1045.97
            vertex      -20.3955      -301.824       1039.73
            vertex      -12.6328      -302.982       1035.28
        endloop
    endfacet
    facet normal      -0.0327816     -0.900758     -0.433082
        outer loop
            vertex      -12.6328      -302.982       1035.28
            vertex      -3.02519       -302.01       1032.53
            vertex       9.01088      -303.016       1033.71
        endloop
    endfacet
    facet normal         0.57926     -0.706121      0.407247
        outer loop
            vertex       26.5635      -301.203       1081.15
            vertex       18.2976      -302.909       1089.95
            vertex       30.3994      -303.007       1072.57
        endloop
    endfacet
    facet normal       0.0220904     -0.209453      0.977569
        outer loop
            vertex       6.61515      -303.021        1094.6
            vertex     -0.666743      -299.019       1095.63
            vertex      -5.69687      -302.952        1094.9
        endloop
    endfacet
endsolid midas_NFX_Mesh
