solid STL generated by MeshLab
  facet normal  9.991890e-01  4.026599e-02  0.000000e+00
    outer loop
      vertex   7.475680e+01  6.034993e+00 -2.235174e-07
      vertex   7.500000e+01  2.755455e-14 -2.235174e-07
      vertex   7.500000e+01  9.184851e-15 -1.000000e+01
    endloop
  endfacet
  facet normal  9.991890e-01 -4.026599e-02  7.396741e-17
    outer loop
      vertex   7.500000e+01  9.184851e-15 -1.000000e+01
      vertex   7.500000e+01  2.755455e-14 -2.235174e-07
      vertex   7.475680e+01 -6.034993e+00 -1.000000e+01
    endloop
  endfacet
  facet normal  9.991890e-01 -4.026599e-02  0.000000e+00
    outer loop
      vertex   7.500000e+01  2.755455e-14 -2.235174e-07
      vertex   7.475680e+01 -6.034993e+00 -2.235174e-07
      vertex   7.475680e+01 -6.034993e+00 -1.000000e+01
    endloop
  endfacet
  facet normal  9.870502e-01 -1.604116e-01  0.000000e+00
    outer loop
      vertex   7.475680e+01 -6.034993e+00 -1.000000e+01
      vertex   7.475680e+01 -6.034993e+00 -2.235174e-07
      vertex   7.282063e+01 -1.794867e+01 -2.235174e-07
    endloop
  endfacet
  facet normal  9.870502e-01 -1.604116e-01  0.000000e+00
    outer loop
      vertex   7.475680e+01 -6.034993e+00 -1.000000e+01
      vertex   7.282063e+01 -1.794867e+01 -2.235174e-07
      vertex   7.282063e+01 -1.794867e+01 -1.000000e+01
    endloop
  endfacet
  facet normal  9.485366e-01 -3.166675e-01  0.000000e+00
    outer loop
      vertex   7.282063e+01 -1.794867e+01 -1.000000e+01
      vertex   7.282063e+01 -1.794867e+01 -2.235174e-07
      vertex   6.899846e+01 -2.939750e+01 -2.235174e-07
    endloop
  endfacet
  facet normal  9.485366e-01 -3.166675e-01  0.000000e+00
    outer loop
      vertex   7.282063e+01 -1.794867e+01 -1.000000e+01
      vertex   6.899846e+01 -2.939750e+01 -2.235174e-07
      vertex   6.899846e+01 -2.939750e+01 -1.000000e+01
    endloop
  endfacet
  facet normal  8.854561e-01 -4.647230e-01  0.000000e+00
    outer loop
      vertex   6.899846e+01 -2.939750e+01 -1.000000e+01
      vertex   6.899846e+01 -2.939750e+01 -2.235174e-07
      vertex   6.338926e+01 -4.008494e+01 -2.235174e-07
    endloop
  endfacet
  facet normal  8.854561e-01 -4.647230e-01  0.000000e+00
    outer loop
      vertex   6.899846e+01 -2.939750e+01 -1.000000e+01
      vertex   6.338926e+01 -4.008494e+01 -2.235174e-07
      vertex   6.338926e+01 -4.008494e+01 -1.000000e+01
    endloop
  endfacet
  facet normal  7.994426e-01 -6.007424e-01  0.000000e+00
    outer loop
      vertex   6.338926e+01 -4.008494e+01 -1.000000e+01
      vertex   6.338926e+01 -4.008494e+01 -2.235174e-07
      vertex   5.613831e+01 -4.973420e+01 -2.235174e-07
    endloop
  endfacet
  facet normal  7.994426e-01 -6.007424e-01  0.000000e+00
    outer loop
      vertex   6.338926e+01 -4.008494e+01 -1.000000e+01
      vertex   5.613831e+01 -4.973420e+01 -2.235174e-07
      vertex   5.613831e+01 -4.973420e+01 -1.000000e+01
    endloop
  endfacet
  facet normal  6.927240e-01 -7.212028e-01  0.000000e+00
    outer loop
      vertex   5.613831e+01 -4.973420e+01 -1.000000e+01
      vertex   5.613831e+01 -4.973420e+01 -2.235174e-07
      vertex   4.743340e+01 -5.809537e+01 -2.235174e-07
    endloop
  endfacet
  facet normal  6.927240e-01 -7.212028e-01  0.000000e+00
    outer loop
      vertex   5.613831e+01 -4.973420e+01 -1.000000e+01
      vertex   4.743340e+01 -5.809537e+01 -2.235174e-07
      vertex   4.743340e+01 -5.809537e+01 -1.000000e+01
    endloop
  endfacet
  facet normal  5.680645e-01 -8.229840e-01  0.000000e+00
    outer loop
      vertex   4.743340e+01 -5.809537e+01 -1.000000e+01
      vertex   4.743340e+01 -5.809537e+01 -2.235174e-07
      vertex   3.750000e+01 -6.495190e+01 -2.235174e-07
    endloop
  endfacet
  facet normal  5.680645e-01 -8.229840e-01  0.000000e+00
    outer loop
      vertex   4.743340e+01 -5.809537e+01 -1.000000e+01
      vertex   3.750000e+01 -6.495190e+01 -2.235174e-07
      vertex   3.750000e+01 -6.495190e+01 -1.000000e+01
    endloop
  endfacet
  facet normal  4.286934e-01 -9.034500e-01  0.000000e+00
    outer loop
      vertex   3.750000e+01 -6.495190e+01 -1.000000e+01
      vertex   3.750000e+01 -6.495190e+01 -2.235174e-07
      vertex   2.659537e+01 -7.012622e+01 -2.235174e-07
    endloop
  endfacet
  facet normal  4.286934e-01 -9.034500e-01  0.000000e+00
    outer loop
      vertex   3.750000e+01 -6.495190e+01 -1.000000e+01
      vertex   2.659537e+01 -7.012622e+01 -2.235174e-07
      vertex   2.659537e+01 -7.012622e+01 -1.000000e+01
    endloop
  endfacet
  facet normal  2.782173e-01 -9.605182e-01  0.000000e+00
    outer loop
      vertex   2.659537e+01 -7.012622e+01 -1.000000e+01
      vertex   2.659537e+01 -7.012622e+01 -2.235174e-07
      vertex   1.500193e+01 -7.348430e+01 -2.235174e-07
    endloop
  endfacet
  facet normal  2.782173e-01 -9.605182e-01  0.000000e+00
    outer loop
      vertex   2.659537e+01 -7.012622e+01 -1.000000e+01
      vertex   1.500193e+01 -7.348430e+01 -2.235174e-07
      vertex   1.500193e+01 -7.348430e+01 -1.000000e+01
    endloop
  endfacet
  facet normal  1.205370e-01 -9.927089e-01  0.000000e+00
    outer loop
      vertex   1.500193e+01 -7.348430e+01 -1.000000e+01
      vertex   1.500193e+01 -7.348430e+01 -2.235174e-07
      vertex   3.019945e+00 -7.493918e+01 -2.235174e-07
    endloop
  endfacet
  facet normal  1.205370e-01 -9.927089e-01  0.000000e+00
    outer loop
      vertex   1.500193e+01 -7.348430e+01 -1.000000e+01
      vertex   3.019945e+00 -7.493918e+01 -2.235174e-07
      vertex   3.019945e+00 -7.493918e+01 -1.000000e+01
    endloop
  endfacet
  facet normal -4.026581e-02 -9.991890e-01  0.000000e+00
    outer loop
      vertex   3.019945e+00 -7.493918e+01 -1.000000e+01
      vertex   3.019945e+00 -7.493918e+01 -2.235174e-07
      vertex  -9.040251e+00 -7.445317e+01 -2.235174e-07
    endloop
  endfacet
  facet normal -4.026581e-02 -9.991890e-01  0.000000e+00
    outer loop
      vertex   3.019945e+00 -7.493918e+01 -1.000000e+01
      vertex  -9.040251e+00 -7.445317e+01 -2.235174e-07
      vertex  -9.040251e+00 -7.445317e+01 -1.000000e+01
    endloop
  endfacet
  facet normal -2.000262e-01 -9.797905e-01  0.000000e+00
    outer loop
      vertex  -9.040251e+00 -7.445317e+01 -1.000000e+01
      vertex  -9.040251e+00 -7.445317e+01 -2.235174e-07
      vertex  -2.086631e+01 -7.203886e+01 -2.235174e-07
    endloop
  endfacet
  facet normal -2.000262e-01 -9.797905e-01  0.000000e+00
    outer loop
      vertex  -9.040251e+00 -7.445317e+01 -1.000000e+01
      vertex  -2.086631e+01 -7.203886e+01 -2.235174e-07
      vertex  -2.086631e+01 -7.203886e+01 -1.000000e+01
    endloop
  endfacet
  facet normal -3.546049e-01 -9.350162e-01  0.000000e+00
    outer loop
      vertex  -2.086631e+01 -7.203886e+01 -1.000000e+01
      vertex  -2.086631e+01 -7.203886e+01 -2.235174e-07
      vertex  -3.215194e+01 -6.775878e+01 -2.235174e-07
    endloop
  endfacet
  facet normal -3.546049e-01 -9.350162e-01  0.000000e+00
    outer loop
      vertex  -2.086631e+01 -7.203886e+01 -1.000000e+01
      vertex  -3.215194e+01 -6.775878e+01 -2.235174e-07
      vertex  -3.215194e+01 -6.775878e+01 -1.000000e+01
    endloop
  endfacet
  facet normal -4.999998e-01 -8.660255e-01  0.000000e+00
    outer loop
      vertex  -3.215194e+01 -6.775878e+01 -1.000000e+01
      vertex  -3.215194e+01 -6.775878e+01 -2.235174e-07
      vertex  -4.260486e+01 -6.172379e+01 -2.235174e-07
    endloop
  endfacet
  facet normal -4.999998e-01 -8.660255e-01  0.000000e+00
    outer loop
      vertex  -3.215194e+01 -6.775878e+01 -1.000000e+01
      vertex  -4.260486e+01 -6.172379e+01 -2.235174e-07
      vertex  -4.260486e+01 -6.172379e+01 -1.000000e+01
    endloop
  endfacet
  facet normal -6.324455e-01 -7.746049e-01  0.000000e+00
    outer loop
      vertex  -4.260486e+01 -6.172379e+01 -1.000000e+01
      vertex  -4.260486e+01 -6.172379e+01 -2.235174e-07
      vertex  -5.195433e+01 -5.409018e+01 -2.235174e-07
    endloop
  endfacet
  facet normal -6.324455e-01 -7.746049e-01  0.000000e+00
    outer loop
      vertex  -4.260486e+01 -6.172379e+01 -1.000000e+01
      vertex  -5.195433e+01 -5.409018e+01 -2.235174e-07
      vertex  -5.195433e+01 -5.409018e+01 -1.000000e+01
    endloop
  endfacet
  facet normal -7.485106e-01 -6.631228e-01  0.000000e+00
    outer loop
      vertex  -5.195433e+01 -5.409018e+01 -1.000000e+01
      vertex  -5.195433e+01 -5.409018e+01 -2.235174e-07
      vertex  -5.995821e+01 -4.505567e+01 -2.235174e-07
    endloop
  endfacet
  facet normal -7.485106e-01 -6.631228e-01  0.000000e+00
    outer loop
      vertex  -5.195433e+01 -5.409018e+01 -1.000000e+01
      vertex  -5.995821e+01 -4.505567e+01 -2.235174e-07
      vertex  -5.995821e+01 -4.505567e+01 -1.000000e+01
    endloop
  endfacet
  facet normal -8.451902e-01 -5.344657e-01  0.000000e+00
    outer loop
      vertex  -5.995821e+01 -4.505567e+01 -1.000000e+01
      vertex  -5.995821e+01 -4.505567e+01 -2.235174e-07
      vertex  -6.640920e+01 -3.485424e+01 -2.235174e-07
    endloop
  endfacet
  facet normal -8.451902e-01 -5.344657e-01  0.000000e+00
    outer loop
      vertex  -5.995821e+01 -4.505567e+01 -1.000000e+01
      vertex  -6.640920e+01 -3.485424e+01 -2.235174e-07
      vertex  -6.640920e+01 -3.485424e+01 -1.000000e+01
    endloop
  endfacet
  facet normal -9.199796e-01 -3.919661e-01  0.000000e+00
    outer loop
      vertex  -6.640920e+01 -3.485424e+01 -1.000000e+01
      vertex  -6.640920e+01 -3.485424e+01 -2.235174e-07
      vertex  -7.114023e+01 -2.375010e+01 -2.235174e-07
    endloop
  endfacet
  facet normal -9.199796e-01 -3.919661e-01  0.000000e+00
    outer loop
      vertex  -6.640920e+01 -3.485424e+01 -1.000000e+01
      vertex  -7.114023e+01 -2.375010e+01 -2.235174e-07
      vertex  -7.114023e+01 -2.375010e+01 -1.000000e+01
    endloop
  endfacet
  facet normal -9.709417e-01 -2.393162e-01  0.000000e+00
    outer loop
      vertex  -7.114023e+01 -2.375010e+01 -1.000000e+01
      vertex  -7.114023e+01 -2.375010e+01 -2.235174e-07
      vertex  -7.402877e+01 -1.203085e+01 -2.235174e-07
    endloop
  endfacet
  facet normal -9.709417e-01 -2.393162e-01  0.000000e+00
    outer loop
      vertex  -7.114023e+01 -2.375010e+01 -1.000000e+01
      vertex  -7.402877e+01 -1.203085e+01 -2.235174e-07
      vertex  -7.402877e+01 -1.203085e+01 -1.000000e+01
    endloop
  endfacet
  facet normal -9.967573e-01 -8.046648e-02  0.000000e+00
    outer loop
      vertex  -7.402877e+01 -1.203085e+01 -1.000000e+01
      vertex  -7.402877e+01 -1.203085e+01 -2.235174e-07
      vertex  -7.500000e+01 -7.246755e-31 -2.235174e-07
    endloop
  endfacet
  facet normal -9.967573e-01 -8.046648e-02  0.000000e+00
    outer loop
      vertex  -7.402877e+01 -1.203085e+01 -1.000000e+01
      vertex  -7.500000e+01 -7.246755e-31 -2.235174e-07
      vertex  -7.500000e+01 -7.246755e-31 -1.000000e+01
    endloop
  endfacet
  facet normal -9.967573e-01  8.046648e-02  0.000000e+00
    outer loop
      vertex  -7.500000e+01 -7.246755e-31 -1.000000e+01
      vertex  -7.500000e+01 -7.246755e-31 -2.235174e-07
      vertex  -7.402877e+01  1.203085e+01 -2.235174e-07
    endloop
  endfacet
  facet normal -9.967573e-01  8.046648e-02  0.000000e+00
    outer loop
      vertex  -7.500000e+01 -7.246755e-31 -1.000000e+01
      vertex  -7.402877e+01  1.203085e+01 -2.235174e-07
      vertex  -7.402877e+01  1.203085e+01 -1.000000e+01
    endloop
  endfacet
  facet normal -9.709417e-01  2.393162e-01  0.000000e+00
    outer loop
      vertex  -7.402877e+01  1.203085e+01 -1.000000e+01
      vertex  -7.402877e+01  1.203085e+01 -2.235174e-07
      vertex  -7.114023e+01  2.375010e+01 -2.235174e-07
    endloop
  endfacet
  facet normal -9.709417e-01  2.393162e-01  0.000000e+00
    outer loop
      vertex  -7.402877e+01  1.203085e+01 -1.000000e+01
      vertex  -7.114023e+01  2.375010e+01 -2.235174e-07
      vertex  -7.114023e+01  2.375010e+01 -1.000000e+01
    endloop
  endfacet
  facet normal -9.199796e-01  3.919661e-01  0.000000e+00
    outer loop
      vertex  -7.114023e+01  2.375010e+01 -1.000000e+01
      vertex  -7.114023e+01  2.375010e+01 -2.235174e-07
      vertex  -6.640920e+01  3.485424e+01 -2.235174e-07
    endloop
  endfacet
  facet normal -9.199796e-01  3.919661e-01  0.000000e+00
    outer loop
      vertex  -7.114023e+01  2.375010e+01 -1.000000e+01
      vertex  -6.640920e+01  3.485424e+01 -2.235174e-07
      vertex  -6.640920e+01  3.485424e+01 -1.000000e+01
    endloop
  endfacet
  facet normal -8.451902e-01  5.344657e-01  0.000000e+00
    outer loop
      vertex  -6.640920e+01  3.485424e+01 -1.000000e+01
      vertex  -6.640920e+01  3.485424e+01 -2.235174e-07
      vertex  -5.995821e+01  4.505567e+01 -2.235174e-07
    endloop
  endfacet
  facet normal -8.451902e-01  5.344657e-01  0.000000e+00
    outer loop
      vertex  -6.640920e+01  3.485424e+01 -1.000000e+01
      vertex  -5.995821e+01  4.505567e+01 -2.235174e-07
      vertex  -5.995821e+01  4.505567e+01 -1.000000e+01
    endloop
  endfacet
  facet normal -7.485106e-01  6.631228e-01  0.000000e+00
    outer loop
      vertex  -5.995821e+01  4.505567e+01 -1.000000e+01
      vertex  -5.995821e+01  4.505567e+01 -2.235174e-07
      vertex  -5.195433e+01  5.409018e+01 -2.235174e-07
    endloop
  endfacet
  facet normal -7.485106e-01  6.631228e-01  0.000000e+00
    outer loop
      vertex  -5.995821e+01  4.505567e+01 -1.000000e+01
      vertex  -5.195433e+01  5.409018e+01 -2.235174e-07
      vertex  -5.195433e+01  5.409018e+01 -1.000000e+01
    endloop
  endfacet
  facet normal -6.324455e-01  7.746049e-01  0.000000e+00
    outer loop
      vertex  -5.195433e+01  5.409018e+01 -1.000000e+01
      vertex  -5.195433e+01  5.409018e+01 -2.235174e-07
      vertex  -4.260486e+01  6.172379e+01 -2.235174e-07
    endloop
  endfacet
  facet normal -6.324455e-01  7.746049e-01  0.000000e+00
    outer loop
      vertex  -5.195433e+01  5.409018e+01 -1.000000e+01
      vertex  -4.260486e+01  6.172379e+01 -2.235174e-07
      vertex  -4.260486e+01  6.172379e+01 -1.000000e+01
    endloop
  endfacet
  facet normal -4.999998e-01  8.660255e-01  0.000000e+00
    outer loop
      vertex  -4.260486e+01  6.172379e+01 -1.000000e+01
      vertex  -4.260486e+01  6.172379e+01 -2.235174e-07
      vertex  -3.215194e+01  6.775878e+01 -2.235174e-07
    endloop
  endfacet
  facet normal -4.999998e-01  8.660255e-01  0.000000e+00
    outer loop
      vertex  -4.260486e+01  6.172379e+01 -1.000000e+01
      vertex  -3.215194e+01  6.775878e+01 -2.235174e-07
      vertex  -3.215194e+01  6.775878e+01 -1.000000e+01
    endloop
  endfacet
  facet normal -3.546049e-01  9.350162e-01  0.000000e+00
    outer loop
      vertex  -3.215194e+01  6.775878e+01 -1.000000e+01
      vertex  -3.215194e+01  6.775878e+01 -2.235174e-07
      vertex  -2.086631e+01  7.203886e+01 -2.235174e-07
    endloop
  endfacet
  facet normal -3.546049e-01  9.350162e-01  0.000000e+00
    outer loop
      vertex  -3.215194e+01  6.775878e+01 -1.000000e+01
      vertex  -2.086631e+01  7.203886e+01 -2.235174e-07
      vertex  -2.086631e+01  7.203886e+01 -1.000000e+01
    endloop
  endfacet
  facet normal -2.000262e-01  9.797905e-01  0.000000e+00
    outer loop
      vertex  -2.086631e+01  7.203886e+01 -1.000000e+01
      vertex  -2.086631e+01  7.203886e+01 -2.235174e-07
      vertex  -9.040251e+00  7.445317e+01 -2.235174e-07
    endloop
  endfacet
  facet normal -2.000262e-01  9.797905e-01  0.000000e+00
    outer loop
      vertex  -2.086631e+01  7.203886e+01 -1.000000e+01
      vertex  -9.040251e+00  7.445317e+01 -2.235174e-07
      vertex  -9.040251e+00  7.445317e+01 -1.000000e+01
    endloop
  endfacet
  facet normal -4.026581e-02  9.991890e-01  0.000000e+00
    outer loop
      vertex  -9.040251e+00  7.445317e+01 -1.000000e+01
      vertex  -9.040251e+00  7.445317e+01 -2.235174e-07
      vertex   3.019945e+00  7.493918e+01 -2.235174e-07
    endloop
  endfacet
  facet normal -4.026581e-02  9.991890e-01  0.000000e+00
    outer loop
      vertex  -9.040251e+00  7.445317e+01 -1.000000e+01
      vertex   3.019945e+00  7.493918e+01 -2.235174e-07
      vertex   3.019945e+00  7.493918e+01 -1.000000e+01
    endloop
  endfacet
  facet normal  1.205370e-01  9.927089e-01 -0.000000e+00
    outer loop
      vertex   3.019945e+00  7.493918e+01 -1.000000e+01
      vertex   3.019945e+00  7.493918e+01 -2.235174e-07
      vertex   1.500193e+01  7.348430e+01 -2.235174e-07
    endloop
  endfacet
  facet normal  1.205370e-01  9.927089e-01  0.000000e+00
    outer loop
      vertex   3.019945e+00  7.493918e+01 -1.000000e+01
      vertex   1.500193e+01  7.348430e+01 -2.235174e-07
      vertex   1.500193e+01  7.348430e+01 -1.000000e+01
    endloop
  endfacet
  facet normal  2.782173e-01  9.605182e-01 -0.000000e+00
    outer loop
      vertex   1.500193e+01  7.348430e+01 -1.000000e+01
      vertex   1.500193e+01  7.348430e+01 -2.235174e-07
      vertex   2.659537e+01  7.012622e+01 -2.235174e-07
    endloop
  endfacet
  facet normal  2.782173e-01  9.605182e-01  0.000000e+00
    outer loop
      vertex   1.500193e+01  7.348430e+01 -1.000000e+01
      vertex   2.659537e+01  7.012622e+01 -2.235174e-07
      vertex   2.659537e+01  7.012622e+01 -1.000000e+01
    endloop
  endfacet
  facet normal  4.286934e-01  9.034500e-01 -0.000000e+00
    outer loop
      vertex   2.659537e+01  7.012622e+01 -1.000000e+01
      vertex   2.659537e+01  7.012622e+01 -2.235174e-07
      vertex   3.750000e+01  6.495190e+01 -2.235174e-07
    endloop
  endfacet
  facet normal  4.286934e-01  9.034500e-01  0.000000e+00
    outer loop
      vertex   2.659537e+01  7.012622e+01 -1.000000e+01
      vertex   3.750000e+01  6.495190e+01 -2.235174e-07
      vertex   3.750000e+01  6.495190e+01 -1.000000e+01
    endloop
  endfacet
  facet normal  5.680645e-01  8.229840e-01 -0.000000e+00
    outer loop
      vertex   3.750000e+01  6.495190e+01 -1.000000e+01
      vertex   3.750000e+01  6.495190e+01 -2.235174e-07
      vertex   4.743340e+01  5.809537e+01 -2.235174e-07
    endloop
  endfacet
  facet normal  5.680645e-01  8.229840e-01  0.000000e+00
    outer loop
      vertex   3.750000e+01  6.495190e+01 -1.000000e+01
      vertex   4.743340e+01  5.809537e+01 -2.235174e-07
      vertex   4.743340e+01  5.809537e+01 -1.000000e+01
    endloop
  endfacet
  facet normal  6.927240e-01  7.212028e-01 -0.000000e+00
    outer loop
      vertex   4.743340e+01  5.809537e+01 -1.000000e+01
      vertex   4.743340e+01  5.809537e+01 -2.235174e-07
      vertex   5.613831e+01  4.973420e+01 -2.235174e-07
    endloop
  endfacet
  facet normal  6.927240e-01  7.212028e-01  0.000000e+00
    outer loop
      vertex   4.743340e+01  5.809537e+01 -1.000000e+01
      vertex   5.613831e+01  4.973420e+01 -2.235174e-07
      vertex   5.613831e+01  4.973420e+01 -1.000000e+01
    endloop
  endfacet
  facet normal  7.994426e-01  6.007424e-01 -0.000000e+00
    outer loop
      vertex   5.613831e+01  4.973420e+01 -1.000000e+01
      vertex   5.613831e+01  4.973420e+01 -2.235174e-07
      vertex   6.338926e+01  4.008494e+01 -2.235174e-07
    endloop
  endfacet
  facet normal  7.994426e-01  6.007424e-01  0.000000e+00
    outer loop
      vertex   5.613831e+01  4.973420e+01 -1.000000e+01
      vertex   6.338926e+01  4.008494e+01 -2.235174e-07
      vertex   6.338926e+01  4.008494e+01 -1.000000e+01
    endloop
  endfacet
  facet normal  8.854561e-01  4.647230e-01 -0.000000e+00
    outer loop
      vertex   6.338926e+01  4.008494e+01 -1.000000e+01
      vertex   6.338926e+01  4.008494e+01 -2.235174e-07
      vertex   6.899846e+01  2.939750e+01 -2.235174e-07
    endloop
  endfacet
  facet normal  8.854561e-01  4.647230e-01  0.000000e+00
    outer loop
      vertex   6.338926e+01  4.008494e+01 -1.000000e+01
      vertex   6.899846e+01  2.939750e+01 -2.235174e-07
      vertex   6.899846e+01  2.939750e+01 -1.000000e+01
    endloop
  endfacet
  facet normal  9.485366e-01  3.166675e-01 -0.000000e+00
    outer loop
      vertex   6.899846e+01  2.939750e+01 -1.000000e+01
      vertex   6.899846e+01  2.939750e+01 -2.235174e-07
      vertex   7.282063e+01  1.794867e+01 -2.235174e-07
    endloop
  endfacet
  facet normal  9.485366e-01  3.166675e-01  0.000000e+00
    outer loop
      vertex   6.899846e+01  2.939750e+01 -1.000000e+01
      vertex   7.282063e+01  1.794867e+01 -2.235174e-07
      vertex   7.282063e+01  1.794867e+01 -1.000000e+01
    endloop
  endfacet
  facet normal  9.870502e-01  1.604116e-01 -0.000000e+00
    outer loop
      vertex   7.282063e+01  1.794867e+01 -1.000000e+01
      vertex   7.282063e+01  1.794867e+01 -2.235174e-07
      vertex   7.475680e+01  6.034993e+00 -2.235174e-07
    endloop
  endfacet
  facet normal  9.870502e-01  1.604116e-01  0.000000e+00
    outer loop
      vertex   7.282063e+01  1.794867e+01 -1.000000e+01
      vertex   7.475680e+01  6.034993e+00 -2.235174e-07
      vertex   7.475680e+01  6.034993e+00 -1.000000e+01
    endloop
  endfacet
  facet normal  9.991890e-01  4.026599e-02 -0.000000e+00
    outer loop
      vertex   7.475680e+01  6.034993e+00 -1.000000e+01
      vertex   7.475680e+01  6.034993e+00 -2.235174e-07
      vertex   7.500000e+01  9.184851e-15 -1.000000e+01
    endloop
  endfacet
  facet normal  0.000000e+00  0.000000e+00  1.000000e+00
    outer loop
      vertex   7.500000e+01  9.184851e-15 -2.235174e-07
      vertex   7.475680e+01  6.034993e+00 -2.235174e-07
      vertex  -1.227066e-14 -7.246755e-31 -2.235174e-07
    endloop
  endfacet
  facet normal  0.000000e+00 -0.000000e+00  1.000000e+00
    outer loop
      vertex   6.899846e+01 -2.939750e+01 -2.235174e-07
      vertex   7.282063e+01 -1.794867e+01 -2.235174e-07
      vertex  -1.227066e-14 -7.246755e-31 -2.235174e-07
    endloop
  endfacet
  facet normal  0.000000e+00  0.000000e+00  1.000000e+00
    outer loop
      vertex  -1.227066e-14 -7.246755e-31 -2.235174e-07
      vertex   7.282063e+01 -1.794867e+01 -2.235174e-07
      vertex   7.475680e+01 -6.034993e+00 -2.235174e-07
    endloop
  endfacet
  facet normal -0.000000e+00  0.000000e+00  1.000000e+00
    outer loop
      vertex  -1.227066e-14 -7.246755e-31 -2.235174e-07
      vertex   7.475680e+01 -6.034993e+00 -2.235174e-07
      vertex   7.500000e+01  9.184851e-15 -2.235174e-07
    endloop
  endfacet
  facet normal  0.000000e+00 -0.000000e+00  1.000000e+00
    outer loop
      vertex   4.743340e+01 -5.809537e+01 -2.235174e-07
      vertex   5.613831e+01 -4.973420e+01 -2.235174e-07
      vertex  -1.227066e-14 -7.246755e-31 -2.235174e-07
    endloop
  endfacet
  facet normal  0.000000e+00  0.000000e+00  1.000000e+00
    outer loop
      vertex  -1.227066e-14 -7.246755e-31 -2.235174e-07
      vertex   5.613831e+01 -4.973420e+01 -2.235174e-07
      vertex   6.338926e+01 -4.008494e+01 -2.235174e-07
    endloop
  endfacet
  facet normal  0.000000e+00  0.000000e+00  1.000000e+00
    outer loop
      vertex  -1.227066e-14 -7.246755e-31 -2.235174e-07
      vertex   6.338926e+01 -4.008494e+01 -2.235174e-07
      vertex   6.899846e+01 -2.939750e+01 -2.235174e-07
    endloop
  endfacet
  facet normal  0.000000e+00 -0.000000e+00  1.000000e+00
    outer loop
      vertex   1.500193e+01 -7.348430e+01 -2.235174e-07
      vertex   2.659537e+01 -7.012622e+01 -2.235174e-07
      vertex  -1.227066e-14 -7.246755e-31 -2.235174e-07
    endloop
  endfacet
  facet normal  0.000000e+00  0.000000e+00  1.000000e+00
    outer loop
      vertex  -1.227066e-14 -7.246755e-31 -2.235174e-07
      vertex   2.659537e+01 -7.012622e+01 -2.235174e-07
      vertex   3.750000e+01 -6.495190e+01 -2.235174e-07
    endloop
  endfacet
  facet normal  0.000000e+00  0.000000e+00  1.000000e+00
    outer loop
      vertex  -1.227066e-14 -7.246755e-31 -2.235174e-07
      vertex   3.750000e+01 -6.495190e+01 -2.235174e-07
      vertex   4.743340e+01 -5.809537e+01 -2.235174e-07
    endloop
  endfacet
  facet normal -0.000000e+00  0.000000e+00  1.000000e+00
    outer loop
      vertex  -2.086631e+01 -7.203886e+01 -2.235174e-07
      vertex  -9.040251e+00 -7.445317e+01 -2.235174e-07
      vertex  -1.227066e-14 -7.246755e-31 -2.235174e-07
    endloop
  endfacet
  facet normal  0.000000e+00  0.000000e+00  1.000000e+00
    outer loop
      vertex  -1.227066e-14 -7.246755e-31 -2.235174e-07
      vertex  -9.040251e+00 -7.445317e+01 -2.235174e-07
      vertex   3.019945e+00 -7.493918e+01 -2.235174e-07
    endloop
  endfacet
  facet normal  0.000000e+00  0.000000e+00  1.000000e+00
    outer loop
      vertex  -1.227066e-14 -7.246755e-31 -2.235174e-07
      vertex   3.019945e+00 -7.493918e+01 -2.235174e-07
      vertex   1.500193e+01 -7.348430e+01 -2.235174e-07
    endloop
  endfacet
  facet normal -0.000000e+00  0.000000e+00  1.000000e+00
    outer loop
      vertex  -5.195433e+01 -5.409018e+01 -2.235174e-07
      vertex  -4.260486e+01 -6.172379e+01 -2.235174e-07
      vertex  -1.227066e-14 -7.246755e-31 -2.235174e-07
    endloop
  endfacet
  facet normal  0.000000e+00  0.000000e+00  1.000000e+00
    outer loop
      vertex  -1.227066e-14 -7.246755e-31 -2.235174e-07
      vertex  -4.260486e+01 -6.172379e+01 -2.235174e-07
      vertex  -3.215194e+01 -6.775878e+01 -2.235174e-07
    endloop
  endfacet
  facet normal  0.000000e+00  0.000000e+00  1.000000e+00
    outer loop
      vertex  -1.227066e-14 -7.246755e-31 -2.235174e-07
      vertex  -3.215194e+01 -6.775878e+01 -2.235174e-07
      vertex  -2.086631e+01 -7.203886e+01 -2.235174e-07
    endloop
  endfacet
  facet normal -0.000000e+00  0.000000e+00  1.000000e+00
    outer loop
      vertex  -7.114023e+01 -2.375010e+01 -2.235174e-07
      vertex  -6.640920e+01 -3.485424e+01 -2.235174e-07
      vertex  -1.227066e-14 -7.246755e-31 -2.235174e-07
    endloop
  endfacet
  facet normal  0.000000e+00  0.000000e+00  1.000000e+00
    outer loop
      vertex  -1.227066e-14 -7.246755e-31 -2.235174e-07
      vertex  -6.640920e+01 -3.485424e+01 -2.235174e-07
      vertex  -5.995821e+01 -4.505567e+01 -2.235174e-07
    endloop
  endfacet
  facet normal  0.000000e+00  0.000000e+00  1.000000e+00
    outer loop
      vertex  -1.227066e-14 -7.246755e-31 -2.235174e-07
      vertex  -5.995821e+01 -4.505567e+01 -2.235174e-07
      vertex  -5.195433e+01 -5.409018e+01 -2.235174e-07
    endloop
  endfacet
  facet normal  0.000000e+00  0.000000e+00  1.000000e+00
    outer loop
      vertex  -7.402877e+01  1.203085e+01 -2.235174e-07
      vertex  -7.500000e+01 -7.246755e-31 -2.235174e-07
      vertex  -1.227066e-14 -7.246755e-31 -2.235174e-07
    endloop
  endfacet
  facet normal  0.000000e+00  0.000000e+00  1.000000e+00
    outer loop
      vertex  -1.227066e-14 -7.246755e-31 -2.235174e-07
      vertex  -7.500000e+01 -7.246755e-31 -2.235174e-07
      vertex  -7.402877e+01 -1.203085e+01 -2.235174e-07
    endloop
  endfacet
  facet normal  0.000000e+00  0.000000e+00  1.000000e+00
    outer loop
      vertex  -1.227066e-14 -7.246755e-31 -2.235174e-07
      vertex  -7.402877e+01 -1.203085e+01 -2.235174e-07
      vertex  -7.114023e+01 -2.375010e+01 -2.235174e-07
    endloop
  endfacet
  facet normal  0.000000e+00  0.000000e+00  1.000000e+00
    outer loop
      vertex  -5.995821e+01  4.505567e+01 -2.235174e-07
      vertex  -6.640920e+01  3.485424e+01 -2.235174e-07
      vertex  -1.227066e-14 -7.246755e-31 -2.235174e-07
    endloop
  endfacet
  facet normal  0.000000e+00  0.000000e+00  1.000000e+00
    outer loop
      vertex  -1.227066e-14 -7.246755e-31 -2.235174e-07
      vertex  -6.640920e+01  3.485424e+01 -2.235174e-07
      vertex  -7.114023e+01  2.375010e+01 -2.235174e-07
    endloop
  endfacet
  facet normal  0.000000e+00  0.000000e+00  1.000000e+00
    outer loop
      vertex  -1.227066e-14 -7.246755e-31 -2.235174e-07
      vertex  -7.114023e+01  2.375010e+01 -2.235174e-07
      vertex  -7.402877e+01  1.203085e+01 -2.235174e-07
    endloop
  endfacet
  facet normal  0.000000e+00  0.000000e+00  1.000000e+00
    outer loop
      vertex  -3.215194e+01  6.775878e+01 -2.235174e-07
      vertex  -4.260486e+01  6.172379e+01 -2.235174e-07
      vertex  -1.227066e-14 -7.246755e-31 -2.235174e-07
    endloop
  endfacet
  facet normal  0.000000e+00  0.000000e+00  1.000000e+00
    outer loop
      vertex  -1.227066e-14 -7.246755e-31 -2.235174e-07
      vertex  -4.260486e+01  6.172379e+01 -2.235174e-07
      vertex  -5.195433e+01  5.409018e+01 -2.235174e-07
    endloop
  endfacet
  facet normal  0.000000e+00  0.000000e+00  1.000000e+00
    outer loop
      vertex  -1.227066e-14 -7.246755e-31 -2.235174e-07
      vertex  -5.195433e+01  5.409018e+01 -2.235174e-07
      vertex  -5.995821e+01  4.505567e+01 -2.235174e-07
    endloop
  endfacet
  facet normal  0.000000e+00  0.000000e+00  1.000000e+00
    outer loop
      vertex   3.019945e+00  7.493918e+01 -2.235174e-07
      vertex  -9.040251e+00  7.445317e+01 -2.235174e-07
      vertex  -1.227066e-14 -7.246755e-31 -2.235174e-07
    endloop
  endfacet
  facet normal  0.000000e+00  0.000000e+00  1.000000e+00
    outer loop
      vertex  -1.227066e-14 -7.246755e-31 -2.235174e-07
      vertex  -9.040251e+00  7.445317e+01 -2.235174e-07
      vertex  -2.086631e+01  7.203886e+01 -2.235174e-07
    endloop
  endfacet
  facet normal  0.000000e+00  0.000000e+00  1.000000e+00
    outer loop
      vertex  -1.227066e-14 -7.246755e-31 -2.235174e-07
      vertex  -2.086631e+01  7.203886e+01 -2.235174e-07
      vertex  -3.215194e+01  6.775878e+01 -2.235174e-07
    endloop
  endfacet
  facet normal  0.000000e+00  0.000000e+00  1.000000e+00
    outer loop
      vertex   3.750000e+01  6.495190e+01 -2.235174e-07
      vertex   2.659537e+01  7.012622e+01 -2.235174e-07
      vertex  -1.227066e-14 -7.246755e-31 -2.235174e-07
    endloop
  endfacet
  facet normal  0.000000e+00  0.000000e+00  1.000000e+00
    outer loop
      vertex  -1.227066e-14 -7.246755e-31 -2.235174e-07
      vertex   2.659537e+01  7.012622e+01 -2.235174e-07
      vertex   1.500193e+01  7.348430e+01 -2.235174e-07
    endloop
  endfacet
  facet normal  0.000000e+00  0.000000e+00  1.000000e+00
    outer loop
      vertex  -1.227066e-14 -7.246755e-31 -2.235174e-07
      vertex   1.500193e+01  7.348430e+01 -2.235174e-07
      vertex   3.019945e+00  7.493918e+01 -2.235174e-07
    endloop
  endfacet
  facet normal  0.000000e+00  0.000000e+00  1.000000e+00
    outer loop
      vertex   6.338926e+01  4.008494e+01 -2.235174e-07
      vertex   5.613831e+01  4.973420e+01 -2.235174e-07
      vertex  -1.227066e-14 -7.246755e-31 -2.235174e-07
    endloop
  endfacet
  facet normal  0.000000e+00  0.000000e+00  1.000000e+00
    outer loop
      vertex  -1.227066e-14 -7.246755e-31 -2.235174e-07
      vertex   5.613831e+01  4.973420e+01 -2.235174e-07
      vertex   4.743340e+01  5.809537e+01 -2.235174e-07
    endloop
  endfacet
  facet normal  0.000000e+00  0.000000e+00  1.000000e+00
    outer loop
      vertex  -1.227066e-14 -7.246755e-31 -2.235174e-07
      vertex   4.743340e+01  5.809537e+01 -2.235174e-07
      vertex   3.750000e+01  6.495190e+01 -2.235174e-07
    endloop
  endfacet
  facet normal  0.000000e+00  0.000000e+00  1.000000e+00
    outer loop
      vertex   7.475680e+01  6.034993e+00 -2.235174e-07
      vertex   7.282063e+01  1.794867e+01 -2.235174e-07
      vertex  -1.227066e-14 -7.246755e-31 -2.235174e-07
    endloop
  endfacet
  facet normal  0.000000e+00  0.000000e+00  1.000000e+00
    outer loop
      vertex  -1.227066e-14 -7.246755e-31 -2.235174e-07
      vertex   7.282063e+01  1.794867e+01 -2.235174e-07
      vertex   6.899846e+01  2.939750e+01 -2.235174e-07
    endloop
  endfacet
  facet normal  0.000000e+00  0.000000e+00  1.000000e+00
    outer loop
      vertex  -1.227066e-14 -7.246755e-31 -2.235174e-07
      vertex   6.899846e+01  2.939750e+01 -2.235174e-07
      vertex   6.338926e+01  4.008494e+01 -2.235174e-07
    endloop
  endfacet
  facet normal  0.000000e+00  0.000000e+00 -1.000000e+00
    outer loop
      vertex   7.500000e+01  2.755455e-14 -1.000000e+01
      vertex   7.475680e+01 -6.034993e+00 -1.000000e+01
      vertex  -1.227066e-14 -7.246755e-31 -1.000000e+01
    endloop
  endfacet
  facet normal  0.000000e+00 -0.000000e+00 -1.000000e+00
    outer loop
      vertex   6.899846e+01  2.939750e+01 -1.000000e+01
      vertex   7.282063e+01  1.794867e+01 -1.000000e+01
      vertex  -1.227066e-14 -7.246755e-31 -1.000000e+01
    endloop
  endfacet
  facet normal  0.000000e+00  0.000000e+00 -1.000000e+00
    outer loop
      vertex  -1.227066e-14 -7.246755e-31 -1.000000e+01
      vertex   7.282063e+01  1.794867e+01 -1.000000e+01
      vertex   7.475680e+01  6.034993e+00 -1.000000e+01
    endloop
  endfacet
  facet normal  0.000000e+00  0.000000e+00 -1.000000e+00
    outer loop
      vertex  -1.227066e-14 -7.246755e-31 -1.000000e+01
      vertex   7.475680e+01  6.034993e+00 -1.000000e+01
      vertex   7.500000e+01  2.755455e-14 -1.000000e+01
    endloop
  endfacet
  facet normal  0.000000e+00 -0.000000e+00 -1.000000e+00
    outer loop
      vertex   4.743340e+01  5.809537e+01 -1.000000e+01
      vertex   5.613831e+01  4.973420e+01 -1.000000e+01
      vertex  -1.227066e-14 -7.246755e-31 -1.000000e+01
    endloop
  endfacet
  facet normal  0.000000e+00  0.000000e+00 -1.000000e+00
    outer loop
      vertex  -1.227066e-14 -7.246755e-31 -1.000000e+01
      vertex   5.613831e+01  4.973420e+01 -1.000000e+01
      vertex   6.338926e+01  4.008494e+01 -1.000000e+01
    endloop
  endfacet
  facet normal  0.000000e+00  0.000000e+00 -1.000000e+00
    outer loop
      vertex  -1.227066e-14 -7.246755e-31 -1.000000e+01
      vertex   6.338926e+01  4.008494e+01 -1.000000e+01
      vertex   6.899846e+01  2.939750e+01 -1.000000e+01
    endloop
  endfacet
  facet normal  0.000000e+00 -0.000000e+00 -1.000000e+00
    outer loop
      vertex   1.500193e+01  7.348430e+01 -1.000000e+01
      vertex   2.659537e+01  7.012622e+01 -1.000000e+01
      vertex  -1.227066e-14 -7.246755e-31 -1.000000e+01
    endloop
  endfacet
  facet normal  0.000000e+00  0.000000e+00 -1.000000e+00
    outer loop
      vertex  -1.227066e-14 -7.246755e-31 -1.000000e+01
      vertex   2.659537e+01  7.012622e+01 -1.000000e+01
      vertex   3.750000e+01  6.495190e+01 -1.000000e+01
    endloop
  endfacet
  facet normal  0.000000e+00  0.000000e+00 -1.000000e+00
    outer loop
      vertex  -1.227066e-14 -7.246755e-31 -1.000000e+01
      vertex   3.750000e+01  6.495190e+01 -1.000000e+01
      vertex   4.743340e+01  5.809537e+01 -1.000000e+01
    endloop
  endfacet
  facet normal  0.000000e+00  0.000000e+00 -1.000000e+00
    outer loop
      vertex  -2.086631e+01  7.203886e+01 -1.000000e+01
      vertex  -9.040251e+00  7.445317e+01 -1.000000e+01
      vertex  -1.227066e-14 -7.246755e-31 -1.000000e+01
    endloop
  endfacet
  facet normal  0.000000e+00  0.000000e+00 -1.000000e+00
    outer loop
      vertex  -1.227066e-14 -7.246755e-31 -1.000000e+01
      vertex  -9.040251e+00  7.445317e+01 -1.000000e+01
      vertex   3.019945e+00  7.493918e+01 -1.000000e+01
    endloop
  endfacet
  facet normal  0.000000e+00  0.000000e+00 -1.000000e+00
    outer loop
      vertex  -1.227066e-14 -7.246755e-31 -1.000000e+01
      vertex   3.019945e+00  7.493918e+01 -1.000000e+01
      vertex   1.500193e+01  7.348430e+01 -1.000000e+01
    endloop
  endfacet
  facet normal  0.000000e+00  0.000000e+00 -1.000000e+00
    outer loop
      vertex  -5.195433e+01  5.409018e+01 -1.000000e+01
      vertex  -4.260486e+01  6.172379e+01 -1.000000e+01
      vertex  -1.227066e-14 -7.246755e-31 -1.000000e+01
    endloop
  endfacet
  facet normal  0.000000e+00  0.000000e+00 -1.000000e+00
    outer loop
      vertex  -1.227066e-14 -7.246755e-31 -1.000000e+01
      vertex  -4.260486e+01  6.172379e+01 -1.000000e+01
      vertex  -3.215194e+01  6.775878e+01 -1.000000e+01
    endloop
  endfacet
  facet normal  0.000000e+00  0.000000e+00 -1.000000e+00
    outer loop
      vertex  -1.227066e-14 -7.246755e-31 -1.000000e+01
      vertex  -3.215194e+01  6.775878e+01 -1.000000e+01
      vertex  -2.086631e+01  7.203886e+01 -1.000000e+01
    endloop
  endfacet
  facet normal  0.000000e+00  0.000000e+00 -1.000000e+00
    outer loop
      vertex  -7.114023e+01  2.375010e+01 -1.000000e+01
      vertex  -6.640920e+01  3.485424e+01 -1.000000e+01
      vertex  -1.227066e-14 -7.246755e-31 -1.000000e+01
    endloop
  endfacet
  facet normal  0.000000e+00  0.000000e+00 -1.000000e+00
    outer loop
      vertex  -1.227066e-14 -7.246755e-31 -1.000000e+01
      vertex  -6.640920e+01  3.485424e+01 -1.000000e+01
      vertex  -5.995821e+01  4.505567e+01 -1.000000e+01
    endloop
  endfacet
  facet normal  0.000000e+00  0.000000e+00 -1.000000e+00
    outer loop
      vertex  -1.227066e-14 -7.246755e-31 -1.000000e+01
      vertex  -5.995821e+01  4.505567e+01 -1.000000e+01
      vertex  -5.195433e+01  5.409018e+01 -1.000000e+01
    endloop
  endfacet
  facet normal  0.000000e+00  0.000000e+00 -1.000000e+00
    outer loop
      vertex  -7.402877e+01 -1.203085e+01 -1.000000e+01
      vertex  -7.500000e+01 -7.246755e-31 -1.000000e+01
      vertex  -1.227066e-14 -7.246755e-31 -1.000000e+01
    endloop
  endfacet
  facet normal  0.000000e+00  0.000000e+00 -1.000000e+00
    outer loop
      vertex  -1.227066e-14 -7.246755e-31 -1.000000e+01
      vertex  -7.500000e+01 -7.246755e-31 -1.000000e+01
      vertex  -7.402877e+01  1.203085e+01 -1.000000e+01
    endloop
  endfacet
  facet normal  0.000000e+00  0.000000e+00 -1.000000e+00
    outer loop
      vertex  -1.227066e-14 -7.246755e-31 -1.000000e+01
      vertex  -7.402877e+01  1.203085e+01 -1.000000e+01
      vertex  -7.114023e+01  2.375010e+01 -1.000000e+01
    endloop
  endfacet
  facet normal  0.000000e+00  0.000000e+00 -1.000000e+00
    outer loop
      vertex  -5.995821e+01 -4.505567e+01 -1.000000e+01
      vertex  -6.640920e+01 -3.485424e+01 -1.000000e+01
      vertex  -1.227066e-14 -7.246755e-31 -1.000000e+01
    endloop
  endfacet
  facet normal  0.000000e+00  0.000000e+00 -1.000000e+00
    outer loop
      vertex  -1.227066e-14 -7.246755e-31 -1.000000e+01
      vertex  -6.640920e+01 -3.485424e+01 -1.000000e+01
      vertex  -7.114023e+01 -2.375010e+01 -1.000000e+01
    endloop
  endfacet
  facet normal  0.000000e+00  0.000000e+00 -1.000000e+00
    outer loop
      vertex  -1.227066e-14 -7.246755e-31 -1.000000e+01
      vertex  -7.114023e+01 -2.375010e+01 -1.000000e+01
      vertex  -7.402877e+01 -1.203085e+01 -1.000000e+01
    endloop
  endfacet
  facet normal  0.000000e+00  0.000000e+00 -1.000000e+00
    outer loop
      vertex  -3.215194e+01 -6.775878e+01 -1.000000e+01
      vertex  -4.260486e+01 -6.172379e+01 -1.000000e+01
      vertex  -1.227066e-14 -7.246755e-31 -1.000000e+01
    endloop
  endfacet
  facet normal  0.000000e+00  0.000000e+00 -1.000000e+00
    outer loop
      vertex  -1.227066e-14 -7.246755e-31 -1.000000e+01
      vertex  -4.260486e+01 -6.172379e+01 -1.000000e+01
      vertex  -5.195433e+01 -5.409018e+01 -1.000000e+01
    endloop
  endfacet
  facet normal  0.000000e+00  0.000000e+00 -1.000000e+00
    outer loop
      vertex  -1.227066e-14 -7.246755e-31 -1.000000e+01
      vertex  -5.195433e+01 -5.409018e+01 -1.000000e+01
      vertex  -5.995821e+01 -4.505567e+01 -1.000000e+01
    endloop
  endfacet
  facet normal  0.000000e+00  0.000000e+00 -1.000000e+00
    outer loop
      vertex   3.019945e+00 -7.493918e+01 -1.000000e+01
      vertex  -9.040251e+00 -7.445317e+01 -1.000000e+01
      vertex  -1.227066e-14 -7.246755e-31 -1.000000e+01
    endloop
  endfacet
  facet normal  0.000000e+00  0.000000e+00 -1.000000e+00
    outer loop
      vertex  -1.227066e-14 -7.246755e-31 -1.000000e+01
      vertex  -9.040251e+00 -7.445317e+01 -1.000000e+01
      vertex  -2.086631e+01 -7.203886e+01 -1.000000e+01
    endloop
  endfacet
  facet normal  0.000000e+00  0.000000e+00 -1.000000e+00
    outer loop
      vertex  -1.227066e-14 -7.246755e-31 -1.000000e+01
      vertex  -2.086631e+01 -7.203886e+01 -1.000000e+01
      vertex  -3.215194e+01 -6.775878e+01 -1.000000e+01
    endloop
  endfacet
  facet normal -0.000000e+00  0.000000e+00 -1.000000e+00
    outer loop
      vertex   3.750000e+01 -6.495190e+01 -1.000000e+01
      vertex   2.659537e+01 -7.012622e+01 -1.000000e+01
      vertex  -1.227066e-14 -7.246755e-31 -1.000000e+01
    endloop
  endfacet
  facet normal  0.000000e+00  0.000000e+00 -1.000000e+00
    outer loop
      vertex  -1.227066e-14 -7.246755e-31 -1.000000e+01
      vertex   2.659537e+01 -7.012622e+01 -1.000000e+01
      vertex   1.500193e+01 -7.348430e+01 -1.000000e+01
    endloop
  endfacet
  facet normal  0.000000e+00  0.000000e+00 -1.000000e+00
    outer loop
      vertex  -1.227066e-14 -7.246755e-31 -1.000000e+01
      vertex   1.500193e+01 -7.348430e+01 -1.000000e+01
      vertex   3.019945e+00 -7.493918e+01 -1.000000e+01
    endloop
  endfacet
  facet normal -0.000000e+00  0.000000e+00 -1.000000e+00
    outer loop
      vertex   6.338926e+01 -4.008494e+01 -1.000000e+01
      vertex   5.613831e+01 -4.973420e+01 -1.000000e+01
      vertex  -1.227066e-14 -7.246755e-31 -1.000000e+01
    endloop
  endfacet
  facet normal  0.000000e+00  0.000000e+00 -1.000000e+00
    outer loop
      vertex  -1.227066e-14 -7.246755e-31 -1.000000e+01
      vertex   5.613831e+01 -4.973420e+01 -1.000000e+01
      vertex   4.743340e+01 -5.809537e+01 -1.000000e+01
    endloop
  endfacet
  facet normal  0.000000e+00  0.000000e+00 -1.000000e+00
    outer loop
      vertex  -1.227066e-14 -7.246755e-31 -1.000000e+01
      vertex   4.743340e+01 -5.809537e+01 -1.000000e+01
      vertex   3.750000e+01 -6.495190e+01 -1.000000e+01
    endloop
  endfacet
  facet normal -0.000000e+00  0.000000e+00 -1.000000e+00
    outer loop
      vertex   7.475680e+01 -6.034993e+00 -1.000000e+01
      vertex   7.282063e+01 -1.794867e+01 -1.000000e+01
      vertex  -1.227066e-14 -7.246755e-31 -1.000000e+01
    endloop
  endfacet
  facet normal  0.000000e+00  0.000000e+00 -1.000000e+00
    outer loop
      vertex  -1.227066e-14 -7.246755e-31 -1.000000e+01
      vertex   7.282063e+01 -1.794867e+01 -1.000000e+01
      vertex   6.899846e+01 -2.939750e+01 -1.000000e+01
    endloop
  endfacet
  facet normal  0.000000e+00  0.000000e+00 -1.000000e+00
    outer loop
      vertex  -1.227066e-14 -7.246755e-31 -1.000000e+01
      vertex   6.899846e+01 -2.939750e+01 -1.000000e+01
      vertex   6.338926e+01 -4.008494e+01 -1.000000e+01
    endloop
  endfacet
endsolid vcg
